<?xml version="1.0" encoding="utf-8"?><svg xmlns="http://www.w3.org/2000/svg" xmlns:xlink="http://www.w3.org/1999/xlink"><symbol viewBox="0 0 18.7 35.4" id="arrow" xmlns="http://www.w3.org/2000/svg"><path d="M18.7 17L1.5 0 .1 1.4l16.2 16.3L0 34l1.6 1.4 17.1-17z"/></symbol><symbol viewBox="0 0 512 512" id="basket" xmlns="http://www.w3.org/2000/svg"><path d="M488.542 174.916H293.737V27.028c0-10.686-8.693-19.378-19.378-19.378h-36.717c-10.686 0-19.378 8.693-19.378 19.378v147.888H23.458C10.524 174.916 0 185.439 0 198.375v50.57c0 12.936 10.524 23.458 23.458 23.458h3.375l26.437 187.89c3.534 25.117 25.327 44.057 50.691 44.057h304.076c25.365 0 47.157-18.941 50.691-44.057l26.438-187.891h3.375c12.936 0 23.458-10.523 23.458-23.458v-50.57c.001-12.935-10.521-23.458-23.457-23.458zM238.661 28.048h34.677v194.805h-34.677V28.048zM438.53 457.451c-2.125 15.108-15.235 26.502-30.492 26.502H103.961c-15.257 0-28.366-11.393-30.492-26.502L47.432 272.402h417.135L438.53 457.451zm53.072-208.507a3.064 3.064 0 0 1-3.06 3.06H23.458a3.064 3.064 0 0 1-3.06-3.06v-50.57a3.064 3.064 0 0 1 3.06-3.06h194.805v28.558c0 10.686 8.693 19.378 19.378 19.378h36.717c10.686 0 19.378-8.693 19.378-19.378v-28.558h194.805a3.064 3.064 0 0 1 3.06 3.06v50.57z"/><path d="M110.151 296.287c-5.633 0-10.199 4.567-10.199 10.199v142.789c0 5.632 4.566 10.199 10.199 10.199s10.199-4.567 10.199-10.199V306.486c.001-5.632-4.566-10.199-10.199-10.199zm58.34 0c-5.633 0-10.199 4.567-10.199 10.199v142.789c0 5.632 4.566 10.199 10.199 10.199s10.199-4.567 10.199-10.199V306.486c0-5.632-4.566-10.199-10.199-10.199zm58.339 0c-5.633 0-10.199 4.567-10.199 10.199v142.789c0 5.632 4.566 10.199 10.199 10.199s10.199-4.567 10.199-10.199V306.486c0-5.632-4.566-10.199-10.199-10.199zm58.34 0c-5.632 0-10.199 4.567-10.199 10.199v142.789c0 5.632 4.566 10.199 10.199 10.199 5.632 0 10.199-4.567 10.199-10.199V306.486c0-5.632-4.567-10.199-10.199-10.199zm58.339 0c-5.632 0-10.199 4.567-10.199 10.199v142.789c0 5.632 4.566 10.199 10.199 10.199 5.632 0 10.199-4.567 10.199-10.199V306.486c0-5.632-4.567-10.199-10.199-10.199zm58.34 0c-5.632 0-10.199 4.567-10.199 10.199v8.164c0 5.632 4.567 10.199 10.199 10.199s10.199-4.567 10.199-10.199v-8.164c0-5.632-4.567-10.199-10.199-10.199zm0 46.917c-5.632 0-10.199 4.567-10.199 10.199v95.871c0 5.632 4.567 10.199 10.199 10.199s10.199-4.567 10.199-10.199v-95.871c0-5.632-4.567-10.199-10.199-10.199z"/></symbol><symbol viewBox="0 0 15.642 15.642" id="close" xmlns="http://www.w3.org/2000/svg"><path fill-rule="evenodd" d="M8.882 7.821l6.541-6.541A.75.75 0 1 0 14.362.219L7.821 6.76 1.28.22A.75.75 0 1 0 .219 1.281L6.76 7.822l-6.54 6.54a.75.75 0 0 0 1.06 1.061l6.541-6.541 6.541 6.541a.75.75 0 1 0 1.06-1.061l-6.54-6.541z"/></symbol><symbol viewBox="0 0 348.077 348.077" id="phone" xmlns="http://www.w3.org/2000/svg"><path d="M340.273 275.083l-53.755-53.761c-10.707-10.664-28.438-10.34-39.518.744l-27.082 27.076a792.327 792.327 0 0 1-5.344-2.973c-17.102-9.476-40.509-22.464-65.14-47.113-24.704-24.701-37.704-48.144-47.209-65.257-1.003-1.813-1.964-3.561-2.913-5.221l18.176-18.149 8.936-8.947c11.097-11.1 11.403-28.826.721-39.521L73.39 8.194c-10.682-10.68-28.421-10.356-39.518.744l-15.15 15.237.414.411c-5.08 6.482-9.325 13.958-12.484 22.02C3.74 54.28 1.927 61.603 1.098 68.941-6 127.785 20.89 181.564 93.866 254.541c100.875 100.868 182.167 93.248 185.674 92.876 7.638-.913 14.958-2.738 22.397-5.627 7.992-3.122 15.463-7.361 21.941-12.43l.331.294 15.348-15.029c11.074-11.098 11.393-28.83.716-39.542z"/></symbol><symbol id="right-arrow" viewBox="0 0 31.5 22.1" xmlns="http://www.w3.org/2000/svg"><style>.est0{fill:#1e201d}</style><path class="est0" d="M21.2.3c-.4-.4-1.1-.4-1.6 0-.4.4-.4 1.1 0 1.6l8 8H1.1c-.6.1-1.1.5-1.1 1.2s.5 1.1 1.1 1.1h26.6l-8 8c-.4.4-.4 1.2 0 1.6.4.4 1.2.4 1.6 0l10-10c.4-.4.4-1.1 0-1.6L21.2.3z"/></symbol><symbol viewBox="0 0 18 18" id="search" xmlns="http://www.w3.org/2000/svg"><path d="M17.7 16.3l-4.1-4.1c2.3-3 2.1-7.2-.7-10C11.5.7 9.5 0 7.6 0S3.7.7 2.2 2.2c-3 3-3 7.8 0 10.7 1.5 1.5 3.4 2.2 5.4 2.2 1.6 0 3.2-.5 4.6-1.6l4.1 4.1c.2.2.5.3.7.3s.5-.1.7-.3c.4-.3.4-.9 0-1.3zM3.6 11.5c-1-1-1.6-2.4-1.6-3.9s.6-2.9 1.6-3.9C4.7 2.6 6.1 2 7.6 2s2.9.6 3.9 1.6c1.1 1.1 1.6 2.5 1.6 3.9s-.6 2.9-1.6 3.9C10.4 12.5 9 13 7.6 13s-2.9-.4-4-1.5z"/></symbol><symbol viewBox="0 0 548.4 312.9" id="vk" xmlns="http://www.w3.org/2000/svg"><path d="M545.5 282.5c-.7-1.4-1.3-2.6-1.9-3.6-9.5-17.1-27.7-38.2-54.5-63.1l-.6-.6-.3-.3-.3-.3h-.3c-12.2-11.6-19.9-19.4-23.1-23.4-5.9-7.6-7.2-15.3-4-23.1 2.3-5.9 10.9-18.4 25.7-37.4 7.8-10.1 14-18.2 18.6-24.3 32.9-43.8 47.2-71.8 42.8-83.9l-1.7-2.8c-1.1-1.7-4.1-3.3-8.8-4.7-4.8-1.4-10.9-1.7-18.3-.7l-82.2.6c-1.3-.5-3.2-.4-5.7.1-2.5.6-3.7.9-3.7.9l-1.4.7-1.1.9c-1 .6-2 1.6-3.1 3s-2.1 3.1-2.8 5c-9 23-19.1 44.4-30.6 64.2-7 11.8-13.5 22-19.4 30.7-5.9 8.7-10.8 15-14.8 19.1-4 4.1-7.6 7.4-10.9 9.8-3.2 2.5-5.7 3.5-7.4 3.1-1.7-.4-3.3-.8-4.9-1.1-2.7-1.7-4.8-4-6.4-7-1.6-3-2.7-6.7-3.3-11.1-.6-4.5-.9-8.3-1-11.6-.1-3.2 0-7.8.1-13.7.2-5.9.3-9.9.3-12 0-7.2.1-15.1.4-23.6.3-8.5.5-15.2.7-20.1.2-4.9.3-10.2.3-15.7s-.3-9.8-1-13c-.7-3.1-1.7-6.2-3-9.1-1.3-2.9-3.3-5.2-5.9-6.9-2.6-1.6-5.8-2.9-9.6-3.9-10.1-2.3-22.9-3.5-38.5-3.7-35.4-.4-58.1 1.9-68.2 6.9-4 2.1-7.6 4.9-10.8 8.6-3.4 4.2-3.9 6.5-1.4 6.9 11.4 1.7 19.5 5.8 24.3 12.3l1.7 3.4c1.3 2.5 2.7 6.9 4 13.1 1.3 6.3 2.2 13.2 2.6 20.8.9 13.9.9 25.8 0 35.7-1 9.9-1.9 17.6-2.7 23.1-.9 5.5-2.1 10-3.9 13.4-1.7 3.4-2.9 5.5-3.4 6.3-.6.8-1 1.2-1.4 1.4-2.5.9-5 1.4-7.7 1.4s-5.9-1.3-9.7-4c-3.8-2.7-7.8-6.3-11.8-11-4.1-4.7-8.7-11.2-13.9-19.6-5.1-8.4-10.5-18.3-16-29.7l-4.6-8.3c-2.9-5.3-6.8-13.1-11.7-23.3-5-10.2-9.3-20-13.1-29.6-1.5-4-3.8-7-6.9-9.1l-1.4-.9c-.9-.8-2.5-1.6-4.6-2.4-2.1-.9-4.3-1.5-6.6-1.9l-78.2.6c-8 0-13.4 1.8-16.3 5.4l-1.1 1.7C.3 22.4 0 23.9 0 26c0 2.1.6 4.7 1.7 7.7C13.1 60.6 25.6 86.4 39 111.4s25.1 45 35 60.2c9.9 15.2 20 29.6 30.3 43.1s17.1 22.2 20.4 26c3.3 3.8 6 6.7 7.9 8.6l7.1 6.9c4.6 4.6 11.3 10 20.1 16.4 8.9 6.4 18.7 12.7 29.4 18.9 10.8 6.2 23.3 11.2 37.5 15.1 14.3 3.9 28.2 5.5 41.7 4.7h32.8c6.7-.6 11.7-2.7 15.1-6.3l1.1-1.4c.8-1.1 1.5-2.9 2.1-5.3.7-2.4 1-5 1-7.9-.2-8.2.4-15.6 1.9-22.1 1.4-6.6 3-11.5 4.9-14.8 1.8-3.3 3.9-6.1 6.1-8.4 2.3-2.3 3.9-3.7 4.9-4.1.9-.5 1.7-.8 2.3-1 4.6-1.5 9.9 0 16.1 4.4 6.2 4.5 12 10 17.4 16.6 5.4 6.6 11.9 13.9 19.6 22.1 7.6 8.2 14.3 14.3 20 18.3l5.7 3.4c3.8 2.3 8.8 4.4 14.9 6.3 6.1 1.9 11.4 2.4 16 1.4l73.1-1.1c7.2 0 12.9-1.2 16.8-3.6 4-2.4 6.4-5 7.1-7.9.8-2.9.8-6.1.1-9.7-.6-3.7-1.3-6.2-1.9-7.7z"/></symbol></svg>