<?xml version="1.0" encoding="utf-8"?><svg xmlns="http://www.w3.org/2000/svg" xmlns:xlink="http://www.w3.org/1999/xlink"><symbol viewBox="0 0 18.7 35.4" id="arrow" xmlns="http://www.w3.org/2000/svg"><path d="M18.7 17L1.5 0 .1 1.4l16.2 16.3L0 34l1.6 1.4 17.1-17z"/></symbol><symbol viewBox="0 0 512 512" id="basket" xmlns="http://www.w3.org/2000/svg"><path d="M488.542 174.916H293.737V27.028c0-10.686-8.693-19.378-19.378-19.378h-36.717c-10.686 0-19.378 8.693-19.378 19.378v147.888H23.458C10.524 174.916 0 185.439 0 198.375v50.57c0 12.936 10.524 23.458 23.458 23.458h3.375l26.437 187.89c3.534 25.117 25.327 44.057 50.691 44.057h304.076c25.365 0 47.157-18.941 50.691-44.057l26.438-187.891h3.375c12.936 0 23.458-10.523 23.458-23.458v-50.57c.001-12.935-10.521-23.458-23.457-23.458zM238.661 28.048h34.677v194.805h-34.677V28.048zM438.53 457.451c-2.125 15.108-15.235 26.502-30.492 26.502H103.961c-15.257 0-28.366-11.393-30.492-26.502L47.432 272.402h417.135L438.53 457.451zm53.072-208.507a3.064 3.064 0 0 1-3.06 3.06H23.458a3.064 3.064 0 0 1-3.06-3.06v-50.57a3.064 3.064 0 0 1 3.06-3.06h194.805v28.558c0 10.686 8.693 19.378 19.378 19.378h36.717c10.686 0 19.378-8.693 19.378-19.378v-28.558h194.805a3.064 3.064 0 0 1 3.06 3.06v50.57z"/><path d="M110.151 296.287c-5.633 0-10.199 4.567-10.199 10.199v142.789c0 5.632 4.566 10.199 10.199 10.199s10.199-4.567 10.199-10.199V306.486c.001-5.632-4.566-10.199-10.199-10.199zm58.34 0c-5.633 0-10.199 4.567-10.199 10.199v142.789c0 5.632 4.566 10.199 10.199 10.199s10.199-4.567 10.199-10.199V306.486c0-5.632-4.566-10.199-10.199-10.199zm58.339 0c-5.633 0-10.199 4.567-10.199 10.199v142.789c0 5.632 4.566 10.199 10.199 10.199s10.199-4.567 10.199-10.199V306.486c0-5.632-4.566-10.199-10.199-10.199zm58.34 0c-5.632 0-10.199 4.567-10.199 10.199v142.789c0 5.632 4.566 10.199 10.199 10.199 5.632 0 10.199-4.567 10.199-10.199V306.486c0-5.632-4.567-10.199-10.199-10.199zm58.339 0c-5.632 0-10.199 4.567-10.199 10.199v142.789c0 5.632 4.566 10.199 10.199 10.199 5.632 0 10.199-4.567 10.199-10.199V306.486c0-5.632-4.567-10.199-10.199-10.199zm58.34 0c-5.632 0-10.199 4.567-10.199 10.199v8.164c0 5.632 4.567 10.199 10.199 10.199s10.199-4.567 10.199-10.199v-8.164c0-5.632-4.567-10.199-10.199-10.199zm0 46.917c-5.632 0-10.199 4.567-10.199 10.199v95.871c0 5.632 4.567 10.199 10.199 10.199s10.199-4.567 10.199-10.199v-95.871c0-5.632-4.567-10.199-10.199-10.199z"/></symbol><symbol viewBox="0 0 15.642 15.642" id="close" xmlns="http://www.w3.org/2000/svg"><path fill-rule="evenodd" d="M8.882 7.821l6.541-6.541A.75.75 0 1 0 14.362.219L7.821 6.76 1.28.22A.75.75 0 1 0 .219 1.281L6.76 7.822l-6.54 6.54a.75.75 0 0 0 1.06 1.061l6.541-6.541 6.541 6.541a.75.75 0 1 0 1.06-1.061l-6.54-6.541z"/></symbol><symbol viewBox="0 0 348.077 348.077" id="phone" xmlns="http://www.w3.org/2000/svg"><path d="M340.273 275.083l-53.755-53.761c-10.707-10.664-28.438-10.34-39.518.744l-27.082 27.076a792.327 792.327 0 0 1-5.344-2.973c-17.102-9.476-40.509-22.464-65.14-47.113-24.704-24.701-37.704-48.144-47.209-65.257-1.003-1.813-1.964-3.561-2.913-5.221l18.176-18.149 8.936-8.947c11.097-11.1 11.403-28.826.721-39.521L73.39 8.194c-10.682-10.68-28.421-10.356-39.518.744l-15.15 15.237.414.411c-5.08 6.482-9.325 13.958-12.484 22.02C3.74 54.28 1.927 61.603 1.098 68.941-6 127.785 20.89 181.564 93.866 254.541c100.875 100.868 182.167 93.248 185.674 92.876 7.638-.913 14.958-2.738 22.397-5.627 7.992-3.122 15.463-7.361 21.941-12.43l.331.294 15.348-15.029c11.074-11.098 11.393-28.83.716-39.542z"/></symbol><symbol viewBox="0 0 18 18" id="search" xmlns="http://www.w3.org/2000/svg"><path d="M17.7 16.3l-4.1-4.1c2.3-3 2.1-7.2-.7-10C11.5.7 9.5 0 7.6 0S3.7.7 2.2 2.2c-3 3-3 7.8 0 10.7 1.5 1.5 3.4 2.2 5.4 2.2 1.6 0 3.2-.5 4.6-1.6l4.1 4.1c.2.2.5.3.7.3s.5-.1.7-.3c.4-.3.4-.9 0-1.3zM3.6 11.5c-1-1-1.6-2.4-1.6-3.9s.6-2.9 1.6-3.9C4.7 2.6 6.1 2 7.6 2s2.9.6 3.9 1.6c1.1 1.1 1.6 2.5 1.6 3.9s-.6 2.9-1.6 3.9C10.4 12.5 9 13 7.6 13s-2.9-.4-4-1.5z"/></symbol></svg>