<?xml version="1.0" encoding="utf-8"?>
<svg version="1.1" id="Layer_1" xmlns="http://www.w3.org/2000/svg" xmlns:xlink="http://www.w3.org/1999/xlink" x="0px" y="0px"
	 viewBox="0 0 18 18" style="enable-background:new 0 0 18 18;" xml:space="preserve">
<path d="M17.7,16.3l-4.1-4.1c2.3-3,2.1-7.2-0.7-10C11.5,0.7,9.5,0,7.6,0S3.7,0.7,2.2,2.2c-3,3-3,7.8,0,10.7c1.5,1.5,3.4,2.2,5.4,2.2
	c1.6,0,3.2-0.5,4.6-1.6l4.1,4.1c0.2,0.2,0.5,0.3,0.7,0.3s0.5-0.1,0.7-0.3C18.1,17.3,18.1,16.7,17.7,16.3z M3.6,11.5
	C2.6,10.5,2,9.1,2,7.6s0.6-2.9,1.6-3.9C4.7,2.6,6.1,2,7.6,2s2.9,0.6,3.9,1.6c1.1,1.1,1.6,2.5,1.6,3.9s-0.6,2.9-1.6,3.9
	c-1.1,1.1-2.5,1.6-3.9,1.6S4.7,12.6,3.6,11.5z"/>
</svg>
